{"title":"9.2009.DVDRip.XViD.{3}Optional.Sub.avi","uid":5499251,"size":735731849,"categoryP":"video","categoryS":"movies","magnet":"?xt=urn:btih:3a5dce7100234a4f3555f16510e1c61bc4df7746&amp;dn=9.2009.DVDRip.XViD.%7B3%7DOptional.Sub.avi&amp;tr=udp%3A%2F%2Ftracker.openbittorrent.com%3A80&amp;tr=udp%3A%2F%2Fopen.demonii.com%3A1337&amp;tr=udp%3A%2F%2Ftracker.coppersurfer.tk%3A6969&amp;tr=udp%3A%2F%2Fexodus.desync.com%3A6969","seeders":0,"leechers":1,"uploader":"Zen_Bud","files":-1,"time":1271439707,"description":"General\nComplete name                    : 9.2009.avi\nFormat                           : AVI\nFormat/Info                      : Audio Video Interleave\nFile size                        : 702 MiB\nDuration                         : 1h 19mn\nOverall bit rate                 : 1 238 Kbps\n\nVideo\nID                               : 0\nFormat                           : MPEG-4 Visual\nCodec ID/Hint                    : XviD\nDuration                         : 1h 19mn\nBit rate                         : 1 097 Kbps\nWidth                            : 720 pixels\nHeight                           : 480 pixels\nDisplay aspect ratio             : 16:9\nFrame rate                       : 25.000 fps\nResolution                       : 8 bits\nColorimetry                      : 4:2:0\nScan type                        : Progressive\nBits/(Pixel*Frame)               : 0.127\nStream size                      : 622 MiB (89%)\nWriting library                  : XviD 1.1.2 (UTC 2006-11-01)\n\nAudio\nID                               : 1\nFormat                           : MPEG Audio\nMode                             : Joint stereo\nCodec ID                         : 55\nCodec ID/Hint                    : MP3\nDuration                         : 1h 19mn\nBit rate mode                    : Constant\nBit rate                         : 128 Kbps\nChannel(s)                       : 2 channels\nSampling rate                    : 48.0 KHz\nStream size                      : 72.5 MiB (10%)\n\n\nGeneral\nComplete name                    : 9.20099.2009.Dan.srt\nFile size                        : 20.4 KiB\n\nGeneral\nComplete name                    : 9.2009.Nor.srt\nFile size                        : 20.6 KiB\n\nGeneral\nComplete name                    : 9.2009.Swe.srt\nFile size                        : 21.0 KiB\n\n","torrent":{"xt":"urn:btih:3a5dce7100234a4f3555f16510e1c61bc4df7746","amp;dn":"9.2009.DVDRip.XViD.%7B3%7DOptional.Sub.avi","amp;tr":["udp%3A%2F%2Ftracker.openbittorrent.com%3A80","udp%3A%2F%2Fopen.demonii.com%3A1337","udp%3A%2F%2Ftracker.coppersurfer.tk%3A6969","udp%3A%2F%2Fexodus.desync.com%3A6969"],"infoHash":"3a5dce7100234a4f3555f16510e1c61bc4df7746","infoHashBuffer":{"type":"Buffer","data":[58,93,206,113,0,35,74,79,53,85,241,101,16,225,198,27,196,223,119,70]},"announce":[],"urlList":[]}}